<svg width="48" height="48" viewBox="0 0 48 48" fill="none" xmlns="http://www.w3.org/2000/svg">
  <defs>
    <linearGradient id="g1a" x1="0" y1="0" x2="48" y2="48" gradientUnits="userSpaceOnUse">
      <stop offset="0%" stop-color="#0EA5E9"/>
      <stop offset="100%" stop-color="#6C47FF"/>
    </linearGradient>
  </defs>
  <path d="M18 8 L12 8 Q8 8 8 12 L8 20 Q8 24 12 24 Q8 24 8 28 L8 36 Q8 40 12 40 L18 40"
    stroke="url(#g1a)" stroke-width="3.5" stroke-linecap="round" stroke-linejoin="round" fill="none"/>
  <path d="M30 8 L36 8 Q40 8 40 12 L40 20 Q40 24 36 24 Q40 24 40 28 L40 36 Q40 40 36 40 L30 40"
    stroke="url(#g1a)" stroke-width="3.5" stroke-linecap="round" stroke-linejoin="round" fill="none"/>
  <circle cx="24" cy="24" r="3.5" fill="url(#g1a)"/>
</svg>